<svg width="16" height="16" viewBox="0 0 16 16" fill="none" xmlns="http://www.w3.org/2000/svg">
<path d="M3.33331 2V14H7.33331V11.6667H8.66665V14H12.6666V2H3.33331ZM4.66665 3.33333H5.99998V4.66667H4.66665V3.33333ZM7.33331 3.33333H8.66665V4.66667H7.33331V3.33333ZM9.99998 3.33333H11.3333V4.66667H9.99998V3.33333ZM4.66665 6H5.99998V7.33333H4.66665V6ZM7.33331 6H8.66665V7.33333H7.33331V6ZM9.99998 6H11.3333V7.33333H9.99998V6ZM4.66665 8.66667H5.99998V10H4.66665V8.66667ZM7.33331 8.66667H8.66665V10H7.33331V8.66667ZM9.99998 8.66667H11.3333V10H9.99998V8.66667ZM4.66665 11.3333H5.99998V12.6667H4.66665V11.3333ZM9.99998 11.3333H11.3333V12.6667H9.99998V11.3333Z" fill="#A7A7A7"/>
</svg>
