<svg width="16" height="16" viewBox="0 0 16 16" fill="none" xmlns="http://www.w3.org/2000/svg">
<g clip-path="url(#clip0_22_143)">
<path d="M5.33329 8.66675C5.15648 8.66675 4.98691 8.59651 4.86189 8.47149C4.73686 8.34646 4.66663 8.17689 4.66663 8.00008C4.66663 7.82327 4.73686 7.6537 4.86189 7.52868C4.98691 7.40365 5.15648 7.33341 5.33329 7.33341C5.5101 7.33341 5.67967 7.40365 5.8047 7.52868C5.92972 7.6537 5.99996 7.82327 5.99996 8.00008C5.99996 8.17689 5.92972 8.34646 5.8047 8.47149C5.67967 8.59651 5.5101 8.66675 5.33329 8.66675V8.66675ZM5.33329 11.3334C5.15648 11.3334 4.98691 11.2632 4.86189 11.1382C4.73686 11.0131 4.66663 10.8436 4.66663 10.6667C4.66663 10.4899 4.73686 10.3204 4.86189 10.1953C4.98691 10.0703 5.15648 10.0001 5.33329 10.0001C5.5101 10.0001 5.67967 10.0703 5.8047 10.1953C5.92972 10.3204 5.99996 10.4899 5.99996 10.6667C5.99996 10.8436 5.92972 11.0131 5.8047 11.1382C5.67967 11.2632 5.5101 11.3334 5.33329 11.3334V11.3334ZM7.33329 10.6667C7.33329 10.8436 7.40353 11.0131 7.52855 11.1382C7.65358 11.2632 7.82315 11.3334 7.99996 11.3334C8.17677 11.3334 8.34634 11.2632 8.47136 11.1382C8.59639 11.0131 8.66663 10.8436 8.66663 10.6667C8.66663 10.4899 8.59639 10.3204 8.47136 10.1953C8.34634 10.0703 8.17677 10.0001 7.99996 10.0001C7.82315 10.0001 7.65358 10.0703 7.52855 10.1953C7.40353 10.3204 7.33329 10.4899 7.33329 10.6667ZM10.6666 11.3334C10.4898 11.3334 10.3202 11.2632 10.1952 11.1382C10.0702 11.0131 9.99996 10.8436 9.99996 10.6667C9.99996 10.4899 10.0702 10.3204 10.1952 10.1953C10.3202 10.0703 10.4898 10.0001 10.6666 10.0001C10.8434 10.0001 11.013 10.0703 11.138 10.1953C11.2631 10.3204 11.3333 10.4899 11.3333 10.6667C11.3333 10.8436 11.2631 11.0131 11.138 11.1382C11.013 11.2632 10.8434 11.3334 10.6666 11.3334ZM7.33329 8.00008C7.33329 8.17689 7.40353 8.34646 7.52855 8.47149C7.65358 8.59651 7.82315 8.66675 7.99996 8.66675C8.17677 8.66675 8.34634 8.59651 8.47136 8.47149C8.59639 8.34646 8.66663 8.17689 8.66663 8.00008C8.66663 7.82327 8.59639 7.6537 8.47136 7.52868C8.34634 7.40365 8.17677 7.33341 7.99996 7.33341C7.82315 7.33341 7.65358 7.40365 7.52855 7.52868C7.40353 7.6537 7.33329 7.82327 7.33329 8.00008ZM10.6666 8.66675C10.4898 8.66675 10.3202 8.59651 10.1952 8.47149C10.0702 8.34646 9.99996 8.17689 9.99996 8.00008C9.99996 7.82327 10.0702 7.6537 10.1952 7.52868C10.3202 7.40365 10.4898 7.33341 10.6666 7.33341C10.8434 7.33341 11.013 7.40365 11.138 7.52868C11.2631 7.6537 11.3333 7.82327 11.3333 8.00008C11.3333 8.17689 11.2631 8.34646 11.138 8.47149C11.013 8.59651 10.8434 8.66675 10.6666 8.66675ZM5.33329 4.66675C5.15648 4.66675 4.98691 4.73699 4.86189 4.86201C4.73686 4.98703 4.66663 5.1566 4.66663 5.33341C4.66663 5.51023 4.73686 5.67979 4.86189 5.80482C4.98691 5.92984 5.15648 6.00008 5.33329 6.00008H10.6666C10.8434 6.00008 11.013 5.92984 11.138 5.80482C11.2631 5.67979 11.3333 5.51023 11.3333 5.33341C11.3333 5.1566 11.2631 4.98703 11.138 4.86201C11.013 4.73699 10.8434 4.66675 10.6666 4.66675H5.33329Z" fill="#A7A7A7"/>
<path fill-rule="evenodd" clip-rule="evenodd" d="M4 2C3.46957 2 2.96086 2.21071 2.58579 2.58579C2.21071 2.96086 2 3.46957 2 4V12C2 12.5304 2.21071 13.0391 2.58579 13.4142C2.96086 13.7893 3.46957 14 4 14H12C12.5304 14 13.0391 13.7893 13.4142 13.4142C13.7893 13.0391 14 12.5304 14 12V4C14 3.46957 13.7893 2.96086 13.4142 2.58579C13.0391 2.21071 12.5304 2 12 2H4ZM12 3.33333H4C3.82319 3.33333 3.65362 3.40357 3.5286 3.5286C3.40357 3.65362 3.33333 3.82319 3.33333 4V12C3.33333 12.1768 3.40357 12.3464 3.5286 12.4714C3.65362 12.5964 3.82319 12.6667 4 12.6667H12C12.1768 12.6667 12.3464 12.5964 12.4714 12.4714C12.5964 12.3464 12.6667 12.1768 12.6667 12V4C12.6667 3.82319 12.5964 3.65362 12.4714 3.5286C12.3464 3.40357 12.1768 3.33333 12 3.33333Z" fill="#A7A7A7"/>
</g>
<defs>
<clipPath id="clip0_22_143">
<rect width="16" height="16" fill="white"/>
</clipPath>
</defs>
</svg>
